<?xml version="1.0" encoding="UTF-8" standalone="no"?>
<svg
   xmlns:dc="http://purl.org/dc/elements/1.1/"
   xmlns:cc="http://creativecommons.org/ns#"
   xmlns:rdf="http://www.w3.org/1999/02/22-rdf-syntax-ns#"
   xmlns:svg="http://www.w3.org/2000/svg"
   xmlns="http://www.w3.org/2000/svg"
   id="svg22"
   preserveAspectRatio="xMidYMid meet"
   viewBox="0 0 6260 6260"
   height="626px"
   width="626px"
   version="1.0">
  <metadata
     id="metadata28">
    <rdf:RDF>
      <cc:Work
         rdf:about="">
        <dc:format>image/svg+xml</dc:format>
        <dc:type
           rdf:resource="http://purl.org/dc/dcmitype/StillImage" />
      </cc:Work>
    </rdf:RDF>
  </metadata>
  <defs
     id="defs26" />
  <g
     stroke="none"
     fill="#010101"
     id="layer1">
    <path
       id="path2"
       d="M2343 6241 c-107 -34 -184 -118 -226 -244 -19 -58 -21 -91 -26 -532 l-6 -470 -220 -5 c-210 -5 -222 -6 -269 -30 -54 -27 -126 -102 -159 -164 l-22 -41 0 -1325 0 -1325 1715 0 1715 0 0 1325 0 1325 -21 40 c-34 63 -97 128 -155 160 l-54 30 -220 5 -220 5 -5 480 c-5 463 -6 482 -27 538 -13 32 -36 77 -53 100 -36 49 -116 117 -139 117 -9 0 -34 7 -56 15 -22 8 -69 14 -104 15 -168 1 -295 -90 -353 -253 -21 -60 -22 -80 -28 -537 l-5 -475 -275 0 -275 0 -6 480 c-5 458 -6 483 -26 537 -27 71 -71 137 -120 177 -79 65 -245 89 -360 52z" />
    <path
       id="path4"
       d="M743 4382 c-105 -38 -191 -121 -235 -230 l-23 -57 -3 -855 c-2 -828 -2 -857 17 -920 37 -119 109 -203 217 -252 38 -17 68 -22 134 -22 120 0 178 22 255 99 66 64 100 126 115 207 6 30 10 391 10 878 0 888 1 870 -51 972 -29 58 -113 136 -176 166 -76 35 -184 41 -260 14z" />
    <path
       id="path6"
       d="M5305 4386 c-102 -32 -190 -112 -239 -215 l-31 -66 0 -885 0 -885 31 -65 c59 -123 147 -195 267 -220 167 -34 326 48 405 208 l37 77 0 880 0 880 -23 57 c-28 68 -87 145 -141 183 -85 59 -214 80 -306 51z" />
    <path
       id="path8"
       d="M1430 1905 c-21 -26 3 -231 46 -385 106 -384 368 -711 741 -925 l83 -47 -34 -61 c-19 -34 -83 -145 -141 -247 -114 -200 -124 -232 -71 -238 38 -5 51 11 139 165 170 294 190 328 194 332 2 3 52 -12 111 -32 171 -59 302 -86 474 -99 286 -21 568 15 806 105 l91 35 45 -77 c260 -448 249 -433 291 -429 54 5 45 37 -67 233 -57 99 -120 210 -141 246 l-37 67 117 68 c351 208 613 544 712 917 26 95 53 284 49 338 l-3 44 -1696 3 c-1497 2 -1698 0 -1709 -13z m954 -588 c58 -33 81 -69 81 -127 0 -111 -113 -178 -212 -126 -38 19 -75 84 -75 131 0 33 25 82 51 100 73 51 99 54 155 22z m1632 -7 c18 -12 42 -40 54 -65 18 -38 20 -49 10 -84 -14 -54 -67 -106 -114 -114 -75 -12 -147 34 -167 106 -19 70 14 136 85 168 47 22 83 19 132 -11z" />
  </g>
  <g
     stroke="none"
     fill="#fefefe"
     id="layer2">
    <path
       id="path11"
       d="M0 3130 l0 -3130 1023 0 1022 0 0 23 c0 12 62 130 138 263 75 132 137 250 137 262 0 15 -21 32 -82 67 -423 243 -712 644 -776 1080 -21 139 -23 176 -11 191 10 12 258 14 1686 14 1536 0 1674 -1 1680 -16 8 -22 -23 -238 -47 -330 -101 -375 -361 -710 -713 -918 -91 -53 -117 -73 -117 -90 0 -11 63 -131 141 -266 82 -143 138 -252 135 -262 -4 -17 50 -18 1020 -18 l1024 0 0 3130 0 3130 -1212 -1 c-774 0 -1201 -4 -1180 -10 17 -5 32 -13 32 -18 0 -5 11 -12 24 -15 32 -8 109 -73 146 -123 17 -23 40 -68 53 -100 21 -56 22 -75 27 -538 l5 -480 220 -5 220 -5 54 -30 c58 -32 121 -97 155 -160 l21 -40 0 -1305 0 -1305 -1695 0 -1695 0 0 1305 0 1305 22 41 c33 62 105 137 159 164 47 24 59 25 269 30 l220 5 6 470 c5 409 8 477 23 525 29 90 75 157 141 206 33 24 65 48 70 53 6 4 24 13 40 19 22 7 -306 11 -1177 11 l-1208 1 0 -3130z m983 1217 c63 -29 146 -107 176 -165 52 -102 51 -86 51 -952 0 -474 -4 -828 -10 -858 -15 -81 -49 -143 -115 -207 -72 -72 -135 -98 -234 -98 -151 0 -281 107 -332 273 -19 63 -19 92 -17 900 l3 835 23 57 c81 200 281 295 455 215z m4510 14 c108 -35 194 -118 239 -229 l23 -57 0 -860 0 -860 -37 -77 c-77 -157 -230 -239 -380 -204 -113 26 -194 96 -252 216 l-31 65 0 865 0 865 31 66 c33 69 112 157 167 186 87 45 156 52 240 24z" />
    <path
       id="path13"
       d="M2552 6250 c15 -4 33 -13 40 -19 7 -6 35 -26 63 -44 62 -40 118 -114 147 -192 21 -58 22 -78 27 -540 l6 -480 295 0 295 0 5 475 c6 461 7 477 29 539 33 94 88 163 168 212 21 12 40 26 43 29 3 4 19 12 35 18 22 8 -133 10 -575 10 -333 0 -593 -3 -578 -8z" />
    <path
       id="path15"
       d="M2250 1341 c-19 -10 -48 -35 -64 -55 -38 -47 -41 -119 -8 -183 29 -55 70 -77 149 -77 67 -1 97 14 137 68 30 40 30 153 0 193 -50 67 -146 91 -214 54z" />
    <path
       id="path17"
       d="M3864 1341 c-64 -29 -89 -72 -89 -153 0 -72 14 -102 69 -142 22 -17 42 -21 94 -20 76 0 110 17 142 69 53 86 26 197 -60 242 -52 28 -101 29 -156 4z" />
    <path
       id="path19"
       d="M2324 448 c-98 -171 -182 -315 -210 -363 -16 -27 -32 -58 -36 -67 -7 -17 47 -18 1052 -18 l1060 0 -11 27 c-6 15 -14 32 -18 38 -8 9 -65 107 -228 388 -28 47 -51 77 -61 77 -10 0 -60 -16 -112 -36 -394 -148 -853 -148 -1264 0 -54 20 -104 36 -111 36 -7 0 -35 -37 -61 -82z" />
  </g>
</svg>
