<?xml version="1.0" standalone="no"?>
<!DOCTYPE svg PUBLIC "-//W3C//DTD SVG 20010904//EN"
 "http://www.w3.org/TR/2001/REC-SVG-20010904/DTD/svg10.dtd">
<svg version="1.0" xmlns="http://www.w3.org/2000/svg"
 width="1334.000000pt" height="1339.000000pt" viewBox="0 0 1334.000000 1339.000000"
 preserveAspectRatio="xMidYMid meet">
<metadata>
Created by potrace 1.14, written by Peter Selinger 2001-2017
</metadata>
<g transform="translate(0.000000,1339.000000) scale(0.100000,-0.100000)"
fill="#000000" stroke="none">
<path d="M6442 12849 c-2501 -123 -4672 -1741 -5499 -4099 -166 -473 -270
-952 -325 -1505 -20 -201 -17 -906 5 -1110 127 -1172 518 -2184 1196 -3095
134 -181 323 -402 480 -563 l145 -148 -137 -137 -137 -137 347 -297 c327 -279
349 -296 363 -279 8 10 60 74 114 142 55 68 103 128 107 133 4 5 45 -19 91
-52 403 -290 934 -569 1428 -750 487 -178 969 -288 1520 -348 196 -21 778 -30
991 -15 1310 92 2500 561 3499 1380 1255 1029 2050 2511 2214 4126 23 223 39
604 31 738 l-7 117 236 0 236 0 0 98 c0 137 -17 387 -41 587 -115 994 -459
1940 -1004 2765 -234 354 -457 630 -765 944 -399 407 -800 725 -1272 1009
-161 97 -209 121 -218 110 -4 -4 -58 -100 -120 -213 -62 -113 -114 -207 -115
-209 -2 -1 -43 19 -92 47 -959 541 -2146 817 -3271 761z m673 -769 c283 -21
594 -68 855 -130 208 -50 420 -113 420 -124 0 -6 -45 -150 -100 -320 -55 -169
-100 -313 -100 -319 0 -7 53 -30 117 -52 145 -49 411 -163 563 -241 63 -32
117 -60 120 -62 4 -1 80 132 171 297 l164 299 37 -19 c61 -31 260 -153 375
-230 485 -324 952 -768 1306 -1242 651 -869 1026 -1928 1064 -2999 l6 -178
-344 -2 -344 -3 -6 -210 c-11 -362 -64 -720 -155 -1053 -19 -69 -33 -127 -31
-128 2 -2 147 -47 323 -100 175 -53 321 -98 323 -100 13 -12 -112 -364 -209
-589 -121 -283 -427 -832 -456 -821 -7 3 -134 86 -283 185 -149 100 -274 181
-278 181 -5 0 -52 -62 -105 -138 -112 -158 -245 -320 -390 -475 l-101 -109
242 -242 243 -243 -124 -116 c-291 -273 -595 -502 -953 -716 -244 -147 -855
-428 -942 -434 -24 -2 -29 8 -134 313 -61 173 -111 316 -113 318 -2 1 -63 -15
-136 -38 -306 -93 -580 -149 -945 -192 -171 -20 -773 -17 -954 5 -79 9 -146
15 -149 12 -2 -2 -25 -152 -51 -334 -25 -181 -49 -332 -52 -335 -3 -3 -72 6
-153 19 -731 124 -1410 390 -2034 798 l-152 99 34 47 c82 113 348 495 352 505
3 7 -53 55 -123 108 -808 608 -1401 1468 -1678 2433 -77 267 -128 532 -162
827 -21 184 -24 765 -5 917 6 52 9 97 7 99 -3 3 -154 22 -336 43 -182 21 -334
41 -337 43 -9 10 27 255 68 456 182 901 583 1721 1186 2430 134 158 452 473
609 604 250 209 515 395 775 546 163 94 458 242 464 232 2 -4 66 -142 140
-307 75 -164 138 -301 141 -303 2 -2 82 27 177 66 525 212 1079 329 1633 345
l80 2 -4 343 -3 342 153 0 c85 0 217 -5 294 -10z"/>
<path d="M6470 10454 c-751 -66 -1413 -315 -1990 -750 -819 -617 -1347 -1545
-1466 -2579 -22 -185 -24 -585 -6 -765 115 -1097 670 -2058 1555 -2692 522
-374 1131 -604 1797 -679 172 -20 611 -17 790 5 734 89 1378 359 1955 820 130
104 408 382 518 517 465 572 739 1211 834 1944 22 174 25 671 5 835 -93 756
-358 1393 -816 1966 -108 135 -355 385 -502 508 -558 467 -1205 749 -1954 852
-110 15 -612 27 -720 18z m-1237 -1252 l138 -229 182 92 c270 136 530 217 832
261 86 13 185 18 352 19 127 0 233 -2 236 -5 3 -3 -10 -165 -29 -360 -18 -195
-33 -371 -34 -391 l0 -36 68 -7 c315 -32 695 -200 952 -420 36 -31 67 -56 70
-56 3 1 124 129 270 286 l265 286 112 -116 c117 -121 227 -262 315 -402 38
-60 57 -82 68 -78 15 5 395 224 436 251 19 12 23 7 86 -115 85 -163 208 -463
208 -507 0 -6 -115 -46 -255 -90 -209 -64 -255 -82 -250 -94 13 -32 65 -258
79 -342 69 -402 35 -857 -95 -1252 -49 -149 -117 -307 -134 -307 -6 0 -166 74
-355 165 -189 91 -344 164 -345 163 -2 -2 -25 -43 -53 -93 -196 -348 -477
-612 -825 -775 -64 -30 -117 -59 -117 -65 0 -5 62 -170 138 -365 91 -233 135
-358 128 -363 -22 -15 -257 -86 -368 -111 -167 -37 -334 -56 -521 -59 l-166
-2 -5 -35 c-3 -19 -8 -118 -11 -220 -3 -102 -8 -207 -11 -234 l-6 -49 -102 6
c-356 20 -760 128 -1115 298 -465 223 -868 552 -1180 967 -206 274 -396 650
-494 984 -31 104 -33 118 -18 122 9 3 122 33 251 66 129 33 240 62 246 64 7 3
4 37 -12 107 -37 162 -56 340 -57 531 -1 97 0 179 3 181 3 3 176 -6 385 -19
209 -13 385 -22 391 -20 6 2 14 41 17 85 6 82 47 280 72 351 12 34 12 39 -3
45 -9 4 -177 61 -372 127 -195 65 -356 120 -357 122 -6 6 107 267 162 373 100
192 214 356 390 560 l36 41 -123 119 c-68 65 -154 148 -192 184 -59 56 -67 68
-58 85 13 24 223 215 322 291 76 59 300 213 310 213 3 0 67 -103 143 -228z"/>
<path d="M6610 7935 c-8 -2 -49 -9 -90 -15 -422 -69 -792 -385 -939 -802 -46
-133 -64 -244 -65 -398 0 -152 10 -219 56 -367 17 -57 29 -105 27 -107 -2 -2
-186 -78 -408 -170 -474 -197 -451 -187 -451 -198 0 -19 120 -250 172 -330
270 -422 700 -750 1176 -898 82 -25 319 -81 323 -76 1 0 33 210 73 466 l71
464 55 -4 c520 -43 987 212 1215 663 180 355 180 759 0 1111 -63 123 -124 206
-230 311 -233 231 -541 357 -865 354 -58 -1 -112 -3 -120 -4z m274 -650 c198
-52 369 -223 421 -421 19 -75 19 -220 -1 -297 -48 -187 -201 -350 -382 -408
-215 -68 -440 -13 -598 145 -321 321 -175 860 265 982 65 18 225 17 295 -1z"/>
</g>
</svg>
