<svg width="10247" height="10247" xmlns="http://www.w3.org/2000/svg" preserveAspectRatio="xMidYMid meet">
 <metadata>Created by potrace 1.14, written by Peter Selinger 2001-2017</metadata>

 <g>
  <title>background</title>
  <rect fill="none" id="canvas_background" height="10249" width="10249" y="-1" x="-1"/>
 </g>
 <g>
  <title>Layer 1</title>
  <g id="svg_1" fill="#000000" transform="translate(0,1024) scale(0.10000000149011612,-0.10000000149011612) ">
   <path id="svg_2" d="m4870,10197c-3,-3 -41,-8 -85,-12c-130,-10 -153,-13 -308,-35c-372,-53 -714,-135 -1017,-245c-504,-184 -881,-383 -1316,-696c-373,-269 -764,-652 -1041,-1021c-462,-616 -760,-1258 -932,-2008c-34,-150 -73,-400 -96,-615c-30,-280 -30,-666 0,-975c39,-411 148,-895 281,-1252c51,-138 178,-436 231,-543c132,-265 363,-632 542,-860c228,-289 536,-605 801,-822c264,-216 737,-519 1000,-641c124,-58 403,-174 536,-223c306,-112 846,-236 1114,-255c41,-3 80,-7 87,-9c59,-20 733,-29 888,-12c39,4 99,10 135,13c212,18 614,91 830,150c141,39 491,159 610,209c156,66 491,232 640,318c351,201 672,449 993,766c418,413 741,859 997,1376c257,519 414,1034 489,1605c11,85 23,175 27,200c12,90 16,773 5,860c-6,47 -13,105 -16,130c-63,569 -179,1015 -397,1519c-95,221 -124,279 -236,476c-245,433 -497,763 -856,1120c-218,218 -297,287 -511,447c-270,202 -502,347 -785,488c-197,99 -269,130 -505,220c-385,146 -669,218 -1110,280c-137,19 -180,24 -315,36c-78,7 -675,17 -680,11zm525,-277c492,-24 847,-89 1300,-237c261,-85 356,-124 599,-242c182,-88 514,-280 641,-370c499,-355 950,-815 1278,-1306c395,-589 662,-1292 757,-1985c69,-510 68,-927 -5,-1434c-55,-388 -134,-675 -297,-1085c-158,-397 -407,-835 -646,-1136c-31,-38 -72,-90 -91,-115c-135,-171 -424,-465 -627,-637c-315,-267 -766,-554 -1104,-703c-493,-217 -874,-326 -1404,-400c-359,-50 -880,-52 -1226,-4c-833,115 -1520,380 -2180,839c-414,288 -784,650 -1118,1093c-440,583 -752,1315 -877,2058c-58,344 -76,631 -64,999c8,255 10,277 45,520c127,886 481,1688 1056,2391c140,172 465,500 618,626c193,159 507,382 660,470c348,200 700,353 1053,457c422,124 753,182 1157,200c245,12 258,12 475,1z"/>
  </g>
  <g id="svg_3" fill="#ff0000" transform="translate(0,1024) scale(0.10000000149011612,-0.10000000149011612) ">
   <path id="svg_4" d="m3927,8279c-156,-25 -326,-191 -431,-422c-229,-503 -221,-1229 19,-1712c102,-205 227,-333 369,-377c248,-76 499,136 639,538c217,625 114,1457 -225,1819c-117,126 -238,176 -371,154z"/>
   <path id="svg_5" d="m6260,8276c-274,-59 -499,-445 -566,-969c-25,-196 -16,-522 20,-709c77,-405 248,-704 463,-810c61,-30 76,-33 153,-33c75,0 93,4 153,32c237,112 422,469 483,934c23,175 15,538 -15,694c-31,163 -57,258 -105,376c-114,283 -275,454 -461,488c-32,6 -61,11 -64,10c-3,0 -31,-6 -61,-13z"/>
  </g>
  <g id="svg_6" fill="#00ff00" transform="translate(0,1024) scale(0.10000000149011612,-0.10000000149011612) ">
   <path id="svg_7" d="m1962,5471c-53,-14 -109,-57 -139,-108c-23,-40 -28,-60 -28,-114c0,-55 5,-73 30,-114c26,-42 45,-57 133,-104l103,-56l-6,-40c-13,-103 -17,-513 -5,-633c36,-376 130,-734 280,-1062c302,-664 815,-1207 1436,-1518c205,-103 436,-192 614,-237c711,-180 1469,-99 2110,228c312,159 519,307 763,546c297,292 468,527 648,892c248,502 361,1063 329,1629c-5,96 -10,181 -10,187c0,7 39,33 88,57c129,65 172,121 172,226c0,129 -96,225 -225,224c-57,-1 -75,-9 -400,-171c-187,-94 -359,-185 -381,-201c-48,-35 -94,-119 -94,-172c0,-110 73,-202 182,-228c60,-15 96,-8 189,39c73,36 77,37 82,18c9,-32 1,-374 -11,-489c-63,-610 -340,-1205 -778,-1669c-380,-404 -926,-690 -1489,-783c-123,-20 -175,-23 -430,-23c-258,0 -304,2 -415,23c-292,53 -524,131 -770,259c-379,197 -648,425 -936,794c-67,85 -184,260 -184,274c0,2 -22,41 -49,88c-88,152 -207,469 -261,691c-24,100 -55,311 -71,476c-11,127 -10,363 3,375c4,4 36,-9 72,-28c90,-50 132,-60 195,-46c183,39 245,258 109,385c-18,17 -190,111 -383,208c-362,182 -398,196 -473,177z"/>
  </g>
 </g>
</svg>