<?xml version="1.0" standalone="no"?>
<!DOCTYPE svg PUBLIC "-//W3C//DTD SVG 20010904//EN"
 "http://www.w3.org/TR/2001/REC-SVG-20010904/DTD/svg10.dtd">
<svg version="1.0" xmlns="http://www.w3.org/2000/svg"
 width="300.000000pt" height="300.000000pt" viewBox="0 0 300.000000 300.000000"
 preserveAspectRatio="xMidYMid meet">
<metadata>
Created by potrace 1.14, written by Peter Selinger 2001-2017
</metadata>
<g transform="translate(0.000000,300.000000) scale(0.100000,-0.100000)"
fill="#000000" stroke="none">
<path d="M1422 2879 c-566 -33 -998 -257 -1147 -595 -31 -69 -65 -195 -65
-238 0 -31 -40 -206 -79 -346 -60 -216 -74 -543 -32 -739 53 -249 183 -453
363 -569 158 -101 453 -206 718 -253 104 -19 160 -23 330 -23 224 0 296 10
479 64 293 87 608 303 719 494 260 443 301 936 113 1332 -134 280 -374 541
-647 702 -141 84 -359 156 -503 167 -42 4 -85 7 -96 9 -11 1 -80 -1 -153 -5z
m390 -104 c217 -55 420 -173 603 -347 193 -184 340 -413 399 -620 85 -297 49
-631 -104 -962 -73 -159 -122 -225 -245 -326 -342 -280 -765 -387 -1249 -314
-306 46 -667 185 -804 310 -119 108 -198 243 -243 419 -22 81 -24 112 -24 305
0 235 13 333 65 505 15 50 35 135 44 190 43 251 80 353 171 467 134 170 391
307 690 367 87 18 238 35 370 44 78 4 231 -13 327 -38z"/>
<path d="M1375 2673 c-246 -20 -487 -88 -646 -183 -132 -78 -243 -203 -288
-326 -12 -30 -32 -119 -46 -197 -13 -78 -38 -190 -55 -249 -44 -152 -60 -253
-67 -408 -13 -306 52 -516 206 -671 66 -66 92 -84 191 -132 513 -245 1061
-262 1470 -44 169 89 323 214 384 311 87 139 163 338 192 509 32 185 9 414
-60 584 -95 231 -307 482 -531 626 -238 152 -455 205 -750 180z m583 -355 c20
-20 14 -45 -28 -115 -23 -36 -37 -69 -33 -72 4 -3 40 -27 79 -53 88 -58 99
-70 85 -96 -20 -38 -41 -34 -123 18 -44 27 -83 50 -88 50 -4 0 -21 -33 -36
-72 -15 -40 -34 -81 -42 -90 -34 -40 -79 -5 -66 49 4 16 22 62 41 102 l34 75
-72 73 c-68 68 -72 74 -61 98 19 41 51 32 112 -30 30 -30 57 -55 60 -55 4 0
25 29 48 65 41 65 64 79 90 53z m-934 -127 c22 -24 16 -36 -65 -133 l-59 -71
70 -72 c38 -40 70 -76 70 -80 0 -3 -5 -15 -10 -26 -19 -34 -52 -22 -115 41
-33 33 -63 59 -68 57 -5 -1 -23 -29 -40 -62 -26 -48 -37 -61 -59 -63 -59 -7
-53 53 15 162 l24 38 -32 48 c-49 73 -58 107 -35 130 28 28 52 15 84 -46 16
-30 32 -54 37 -54 5 0 36 34 70 75 64 78 84 88 113 56z m1386 -448 c82 -28
112 -43 121 -60 11 -20 10 -26 -7 -44 -19 -18 -22 -19 -64 -4 -24 8 -45 14
-47 12 -2 -2 -8 -41 -14 -87 -12 -103 -31 -186 -64 -282 -14 -40 -25 -76 -25
-79 0 -3 17 -11 38 -18 54 -16 112 -60 147 -110 28 -40 30 -49 30 -129 0 -132
-42 -198 -125 -196 -49 2 -89 24 -177 101 l-76 66 -19 -24 c-44 -56 -145 -152
-178 -169 -20 -10 -72 -20 -123 -24 -71 -6 -101 -14 -164 -43 -93 -45 -152
-51 -264 -28 -131 26 -176 53 -313 185 -79 76 -132 120 -152 124 -16 3 -68 13
-116 20 -104 17 -147 36 -192 87 -43 47 -66 91 -100 197 -15 45 -32 82 -37 82
-5 0 -27 -12 -49 -26 -35 -23 -44 -25 -65 -16 -56 26 -22 73 90 127 93 45 168
63 190 45 32 -26 12 -80 -30 -80 -48 -1 -51 -13 -20 -102 64 -187 87 -208 256
-234 56 -8 119 -24 142 -35 22 -12 82 -65 133 -118 100 -104 156 -141 249
-166 101 -26 169 -20 255 21 62 31 90 38 165 44 49 3 99 11 110 17 33 18 148
144 195 212 115 171 210 454 210 627 0 51 -2 54 -24 54 -48 0 -76 58 -38 79
26 16 35 14 152 -26z"/>
<path d="M2263 1104 c-3 -9 4 -21 18 -31 44 -30 109 -106 109 -127 0 -26 -18
-46 -40 -46 -8 0 -39 25 -68 55 -56 58 -69 64 -78 40 -6 -15 6 -27 118 -117
67 -54 90 -59 106 -23 50 109 0 210 -126 253 -27 9 -34 9 -39 -4z"/>
</g>
</svg>
